<svg xmlns="http://www.w3.org/2000/svg" version="1.1" xmlns:xlink="http://www.w3.org/1999/xlink" xmlns:svgjs="http://svgjs.dev/svgjs" width="1000" height="1000" viewBox="0 0 1000 1000"><rect width="1000" height="1000" fill="#102e44"></rect><g transform="matrix(0.7,0,0,0.7,149.57575757575756,282.1265587044535)"><svg viewBox="0 0 396 247" data-background-color="#102e44" preserveAspectRatio="xMidYMid meet" height="623" width="1000" xmlns="http://www.w3.org/2000/svg" xmlns:xlink="http://www.w3.org/1999/xlink"><g id="tight-bounds" transform="matrix(1,0,0,1,0.2400000000000091,-0.09999999999999432)"><svg viewBox="0 0 395.52 247.2" height="247.2" width="395.52"><g><svg></svg></g><g><svg viewBox="0 0 395.52 247.2" height="247.2" width="395.52"><g transform="matrix(1,0,0,1,39.55199999999999,48.91606936416186)"><svg viewBox="0 0 316.416 149.36786127167628" height="149.36786127167628" width="316.416"><g><svg viewBox="0 0 316.416 149.36786127167628" height="149.36786127167628" width="316.416"><g><svg viewBox="0 0 316.416 149.36786127167628" height="149.36786127167628" width="316.416"><g><svg viewBox="0 0 316.416 149.36786127167628" height="149.36786127167628" width="316.416"><g><svg viewBox="0 0 316.416 149.36786127167628" height="149.36786127167628" width="316.416"><g><svg viewBox="0 0 316.416 149.36786127167628" height="149.36786127167628" width="316.416"><g transform="matrix(1,0,0,1,0,0)"><svg width="316.416" viewBox="4.449999809265137 -36.25 77.84000396728516 36.75" height="149.36786127167628" data-palette-color="#ffffff"><path d="M27.95 0L4.45 0 4.45-36.25 9.95-36.25 9.95-5.2 27.95-5.2 27.95 0ZM31-28.9L31-28.9Q31-30.1 31.87-30.9 32.75-31.7 33.75-31.7L33.75-31.7Q34.75-31.7 35.6-30.9 36.45-30.1 36.45-28.9L36.45-28.9Q36.45-27.7 35.6-26.93 34.75-26.15 33.75-26.15L33.75-26.15Q32.75-26.15 31.87-26.93 31-27.7 31-28.9ZM35.8-20.9L35.8 0 31.55 0 31.55-20.9 35.8-20.9ZM38.45-36.25L62-36.25 62-31.05 52.84-31.05 52.84 0 47.4 0 47.4-31.05 38.45-31.05 38.45-36.25ZM60.14-10.5L60.14-10.5Q60.14-12.75 61.02-14.75 61.89-16.75 63.39-18.23 64.89-19.7 66.92-20.58 68.94-21.45 71.29-21.45L71.29-21.45Q73.64-21.45 75.67-20.58 77.69-19.7 79.17-18.23 80.64-16.75 81.47-14.75 82.29-12.75 82.29-10.5L82.29-10.5Q82.29-8.25 81.47-6.25 80.64-4.25 79.17-2.75 77.69-1.25 75.67-0.38 73.64 0.5 71.24 0.5L71.24 0.5Q68.94 0.5 66.92-0.3 64.89-1.1 63.39-2.55 61.89-4 61.02-6.03 60.14-8.05 60.14-10.5ZM64.39-10.45L64.39-10.45Q64.39-9.05 64.92-7.83 65.44-6.6 66.37-5.68 67.29-4.75 68.52-4.23 69.74-3.7 71.14-3.7L71.14-3.7Q72.54-3.7 73.79-4.23 75.04-4.75 75.97-5.68 76.89-6.6 77.44-7.83 77.99-9.05 77.99-10.45L77.99-10.45Q77.99-11.85 77.44-13.1 76.89-14.35 75.97-15.28 75.04-16.2 73.79-16.73 72.54-17.25 71.14-17.25L71.14-17.25Q69.74-17.25 68.52-16.73 67.29-16.2 66.37-15.28 65.44-14.35 64.92-13.1 64.39-11.85 64.39-10.45Z" opacity="1" transform="matrix(1,0,0,1,0,0)" fill="#ffffff" class="undefined-text-0" data-fill-palette-color="primary" id="text-0"></path></svg></g></svg></g></svg></g></svg></g><g></g></svg></g></svg></g></svg></g><g mask="url(#4d1b8320-34d1-4ea0-8025-9d586938d96f)"><g transform="matrix(3.9586984294054437, 0, 0, 3.9586984294054437, 1, 51.0151386468614)"><svg xmlns="http://www.w3.org/2000/svg" xmlns:xlink="http://www.w3.org/1999/xlink" version="1.1" x="0" y="0" viewBox="0.29627254605293274 33.946922302246094 99.40641021728516 36.67107391357422" enable-background="new 0 33.947 100 36.669" xml:space="preserve" width="99.40641021728516" height="36.67107391357422" class="icon-none" data-fill-palette-color="accent" id="none"><g fill="#b2fcfb" data-fill-palette-color="accent"><path d="M15.524 55.357c-4.213 0-7.629 3.418-7.629 7.631s3.416 7.63 7.629 7.63c4.215 0 7.63-3.417 7.63-7.63S19.738 55.357 15.524 55.357zM15.524 66.189c-1.778 0-3.219-1.441-3.219-3.22s1.441-3.221 3.219-3.221c1.777 0 3.219 1.442 3.219 3.221C18.742 64.748 17.301 66.189 15.524 66.189z" fill="#b2fcfb" data-fill-palette-color="accent"></path><path d="M82.53 55.355c-4.215 0-7.632 3.417-7.632 7.629 0 4.214 3.417 7.631 7.632 7.631 4.212 0 7.63-3.417 7.63-7.631C90.16 58.772 86.742 55.355 82.53 55.355zM82.53 66.189c-1.778 0-3.222-1.441-3.222-3.22s1.443-3.221 3.222-3.221 3.223 1.442 3.223 3.221S84.309 66.189 82.53 66.189z" fill="#b2fcfb" data-fill-palette-color="accent"></path><path d="M78.23 44.515c0 0-18.764-8.75-24.754-10.018-5.987-1.268-26.597-0.115-28.554 1.151l-11.515 5.64L2.125 46.815 0.298 57.465c0 0-0.05 6.318 0.388 7.773h5.527l0.071-2.25c0-5.103 4.138-9.24 9.243-9.24 5.103 0 9.238 4.138 9.238 9.24l0.158 2.25h48.359l0.007-2.83c0-5.103 3.856-8.87 8.959-8.87s9.523 3.768 9.523 8.87l0.19 2.616c0 0 5.845 0.33 7.688-0.361 0 0 0.69-9.787-2.878-13.357C93.603 48.308 87.213 46.44 78.23 44.515zM25.956 45.896c0 0 2.363-5.01 4.943-6.924 1.911-1.627 12.446-1.583 12.446-1.583l0.389 9.715L25.956 45.896zM71.613 48.198l-24.698-0.978-0.577-9.846c9.154-0.344 19.576 4.549 25.563 8.06C77.89 48.946 71.613 48.198 71.613 48.198z" fill="#b2fcfb" data-fill-palette-color="accent"></path></g></svg></g></g></svg></g><defs><mask id="4d1b8320-34d1-4ea0-8025-9d586938d96f"><rect width="640" height="400" fill="white"></rect><rect width="348.05760000000004" height="219.89219570682076" fill="black" x="145.97119999999998" y="90.05390214658962" id="transform-me" transform="matrix(1,0,0,1,-122.24000000000001,-76.4)"></rect></mask></defs></svg><rect width="395.52" height="247.2" fill="none" stroke="none" visibility="hidden"></rect></g></svg></g></svg>